<svg xmlns="http://www.w3.org/2000/svg" version="1.1" xmlns:xlink="http://www.w3.org/1999/xlink" width="336" height="403"><svg width="336" height="403" viewBox="0 0 336 403" fill="none" xmlns="http://www.w3.org/2000/svg">
<g clip-path="url(#clip0_1_343)">
<path d="M126.074 0.00278025C130.051 0.013717 134.029 0.00852379 138.007 0.00579372C144.678 0.00369987 151.349 0.0140888 158.02 0.0322515C165.696 0.0530074 173.371 0.0543369 181.047 0.0451969C188.484 0.0367542 195.92 0.0416517 203.357 0.0526433C206.499 0.0570916 209.641 0.0570997 212.783 0.0533716C216.49 0.0496118 220.197 0.0577006 223.904 0.0743773C225.252 0.078658 226.6 0.0791338 227.948 0.0751933C239.366 0.0460375 250.901 0.942206 261.737 4.82809C262.307 5.02674 262.878 5.22539 263.466 5.43006C291.634 15.533 313.482 35.2388 326.339 62.2765C329.712 69.9212 332.227 78.0087 333.918 86.1851C334.263 87.8361 334.263 87.8361 335.034 90.015C335.148 91.2391 335.225 92.467 335.277 93.6954C335.309 94.4475 335.341 95.1996 335.374 95.9745C335.405 96.7956 335.435 97.6168 335.466 98.4628C335.499 99.3274 335.532 100.192 335.566 101.083C335.93 111.564 335.927 122.043 335.917 132.529C335.918 134.685 335.919 136.841 335.92 138.996C335.921 143.477 335.919 147.958 335.916 152.439C335.911 157.574 335.913 162.71 335.917 167.845C335.921 172.31 335.921 176.776 335.919 181.241C335.918 183.884 335.918 186.526 335.92 189.169C335.942 221.026 335.942 221.026 333.717 231.116C333.58 231.756 333.443 232.396 333.303 233.055C326.408 263.947 306.811 290.231 280.284 307.331C261.565 318.937 242.322 323.873 220.408 323.964C219.253 323.972 218.099 323.979 216.945 323.987C213.834 324.008 210.723 324.025 207.612 324.04C204.353 324.058 201.093 324.079 197.834 324.1C191.672 324.138 185.51 324.174 179.347 324.207C172.328 324.246 165.308 324.289 158.288 324.332C143.858 324.42 129.427 324.503 114.996 324.583C114.996 324.84 114.996 325.098 114.996 325.363C114.213 325.25 113.429 325.138 112.622 325.022C108.258 325.504 106.671 327.659 103.829 330.818C102.876 331.844 101.92 332.867 100.961 333.886C100.546 334.343 100.131 334.8 99.7039 335.271C98.6107 336.273 98.6107 336.273 97.0501 336.273C97.0501 336.787 97.0501 337.301 97.0501 337.831C96.0644 338.799 96.0644 338.799 94.6042 339.985C89.9943 343.905 85.7878 348.214 81.524 352.5C79.9767 354.056 78.4268 355.609 76.8763 357.161C73.5852 360.457 70.2972 363.756 67.0096 367.055C63.1962 370.882 59.3815 374.708 55.5635 378.53C54.0458 380.051 52.5305 381.574 51.0152 383.098C32.6886 401.479 32.6886 401.479 21.6562 402.123C16.1299 402.007 11.7793 400.294 7.3187 397.058C5.37482 394.879 3.95184 392.642 2.63706 390.044C2.35744 389.572 2.07782 389.1 1.78973 388.614C0.174404 384.794 0.198398 380.536 0.19369 376.443C0.190693 375.46 0.187694 374.477 0.184606 373.464C0.185215 372.383 0.185899 371.302 0.186654 370.222C0.184636 369.065 0.182285 367.909 0.179629 366.753C0.17335 363.582 0.171943 360.411 0.171366 357.24C0.169919 353.817 0.164022 350.394 0.15877 346.971C0.148181 339.487 0.143478 332.003 0.140042 324.518C0.137883 319.839 0.134576 315.159 0.131064 310.48C0.12155 297.509 0.113512 284.538 0.110872 271.566C0.110701 270.736 0.110536 269.906 0.11036 269.051C0.11019 268.219 0.110012 267.388 0.109836 266.53C0.10949 264.845 0.109139 263.159 0.108788 261.474C0.108616 260.638 0.108442 259.802 0.108264 258.94C0.105189 245.416 0.0915949 231.893 0.0734036 218.369C0.0548513 204.464 0.0451771 190.559 0.0442695 176.653C0.0435567 168.855 0.0391272 161.056 0.0248984 153.257C0.0128145 146.611 0.00892023 139.965 0.015326 133.318C0.0183513 129.934 0.0177703 126.549 0.00670602 123.165C-0.0494798 104.895 0.099239 87.0885 6.53842 69.7533C6.83514 68.9506 7.13186 68.148 7.43757 67.321C12.6813 54.0429 20.1259 42.7126 29.9466 32.347C30.4908 31.7624 31.0349 31.1777 31.5956 30.5753C57.4682 3.64858 90.7392 -0.118781 126.074 0.00278025ZM97.4005 37.7081C96.8317 37.7673 96.263 37.8264 95.677 37.8874C83.0911 39.3579 71.4866 45.2014 61.9378 53.388C61.2961 53.9255 60.6544 54.4629 59.9932 55.0166C49.2856 64.2644 41.3673 76.2841 37.7494 90.015C37.5844 90.6378 37.4195 91.2606 37.2495 91.9023C35.4622 99.2976 35.2963 106.636 35.3147 114.205C35.314 115.213 35.3134 116.222 35.3127 117.261C35.311 120.044 35.3141 122.827 35.318 125.61C35.3214 128.617 35.3202 131.624 35.3196 134.631C35.3192 139.836 35.3217 145.041 35.326 150.246C35.3324 157.771 35.3344 165.296 35.3354 172.821C35.3371 185.031 35.3423 197.241 35.3497 209.451C35.3568 221.31 35.3624 233.168 35.3657 245.026C35.3659 245.758 35.3661 246.489 35.3663 247.243C35.3673 250.912 35.3683 254.581 35.3693 258.251C35.3774 288.674 35.3911 319.097 35.4085 349.521C36.2693 348.791 37.1289 348.06 37.9882 347.329C38.4671 346.922 38.9459 346.515 39.4393 346.095C41.6229 344.188 43.6641 342.151 45.7045 340.093C46.3545 339.442 46.3545 339.442 47.0176 338.778C48.3841 337.409 49.7479 336.037 51.1115 334.665C52.0308 333.743 52.9503 332.822 53.8699 331.9C55.9418 329.823 58.0115 327.744 60.0805 325.664C61.0684 324.673 62.0596 323.685 63.0511 322.697C65.0752 320.671 67.0826 318.629 69.0877 316.583C71.2358 314.396 73.3925 312.217 75.5496 310.038C76.6781 308.895 77.8039 307.75 78.9267 306.601C95.8366 289.318 95.8366 289.318 105.822 288.538C106.74 288.537 107.659 288.536 108.605 288.534C109.378 288.53 109.378 288.53 110.166 288.526C111.882 288.518 113.597 288.521 115.313 288.524C116.548 288.521 117.783 288.517 119.017 288.512C121.673 288.503 124.328 288.499 126.984 288.498C131.192 288.497 135.401 288.482 139.61 288.466C150.069 288.428 160.529 288.404 170.988 288.387C179.109 288.374 187.229 288.357 195.349 288.323C199.522 288.306 203.695 288.299 207.868 288.301C210.481 288.3 213.093 288.289 215.706 288.275C216.905 288.271 218.105 288.27 219.304 288.274C241.925 288.341 261.434 280.237 277.683 264.529C293.774 248.432 300.03 227.658 300.047 205.324C300.051 204.215 300.054 203.105 300.059 201.996C300.069 198.993 300.074 195.99 300.077 192.986C300.08 191.104 300.083 189.222 300.086 187.34C300.097 181.435 300.105 175.529 300.108 169.624C300.111 162.839 300.125 156.054 300.147 149.268C300.164 144.004 300.172 138.74 300.173 133.475C300.174 130.341 300.178 127.206 300.193 124.071C300.206 121.116 300.207 118.16 300.2 115.204C300.199 113.624 300.21 112.045 300.221 110.465C300.127 89.3279 292.46 71.2705 277.857 56.143C276.026 53.9903 276.026 53.9903 274.172 54.1673C274.172 53.653 274.172 53.1387 274.172 52.6087C272.504 51.3965 270.848 50.2865 269.1 49.1993C268.342 48.7235 268.342 48.7235 267.569 48.2381C258.618 42.6737 249.262 38.7792 238.694 37.699C238.085 37.6347 237.477 37.5703 236.849 37.504C230.656 36.8938 224.5 36.8026 218.282 36.8211C217.057 36.819 215.833 36.8162 214.608 36.8128C211.329 36.8058 208.05 36.8084 204.771 36.8134C201.31 36.8174 197.849 36.8137 194.388 36.8113C188.579 36.8084 182.771 36.8121 176.963 36.8196C170.286 36.8281 163.608 36.8253 156.93 36.8167C151.157 36.8096 145.384 36.8087 139.61 36.8128C136.179 36.8152 132.749 36.8156 129.318 36.8104C126.09 36.8058 122.862 36.8091 119.634 36.818C118.462 36.82 117.29 36.8195 116.119 36.816C109.838 36.799 103.649 37.0423 97.4005 37.7081Z" fill="#0F82ED"></path>
<path d="M165.295 74.7452C166.067 75.5167 166.067 75.5167 166.855 76.3038C169.665 76.046 171.448 74.5616 173.683 72.9431C182.752 67.0498 193.451 65.7601 203.918 67.8776C214.154 70.4872 222.466 75.9 228.077 85.0271C231.444 90.8804 234.152 96.7279 233.959 103.579C234.667 103.611 235.375 103.643 236.104 103.677C245.778 105.121 253.791 112.174 259.561 119.652C265.99 129.442 267.884 140.928 265.56 152.285C265.379 153.069 265.379 153.069 265.194 153.87C264.347 157.614 264.19 160.193 266.017 163.612C266.349 164.134 266.681 164.655 267.023 165.192C272.043 174 272.684 184.283 270.534 194.075C267.428 204.873 261.774 213.586 251.954 219.256C246.704 222.141 241.563 224.37 235.519 224.37C235.443 224.795 235.366 225.22 235.288 225.658C233.616 234.079 230.13 239.679 224.595 246.191C224.034 246.921 224.034 246.921 223.462 247.667C221.418 250.322 219.872 251.257 216.793 252.425C215.292 253.195 213.797 253.975 212.306 254.763C202.838 259.479 192.728 260.069 182.485 257.195C177.263 255.266 171.383 252.776 167.635 248.528C165.123 249.699 162.942 251.148 160.662 252.717C150.185 259.347 139.032 259.873 127.061 257.88C127.061 257.366 127.061 256.851 127.061 256.321C126.399 256.256 125.738 256.191 125.056 256.124C121.967 255.452 119.642 254.15 117.015 252.474C116.553 252.193 116.09 251.912 115.613 251.623C114.456 250.9 113.341 250.109 112.236 249.308C112.236 248.793 112.236 248.279 112.236 247.749C111.784 247.575 111.333 247.402 110.868 247.222C105.117 243.836 102.705 236.711 101.117 230.605C100.29 227.619 99.68 225.589 96.9263 223.88C94.5368 223.119 94.5368 223.119 92.0587 222.611C86.4579 221.289 81.6656 217.725 77.9041 213.46C77.4726 213.022 77.0411 212.584 76.5965 212.133C69.3526 204.511 66.2227 194.241 65.9073 183.847C66.1072 177.276 67.2331 170.9 70.6865 165.241C72.1328 162.855 72.4453 162.206 72.3934 159.299C72.0187 157.902 71.6429 156.505 71.2473 155.113C68.3722 143.944 69.6644 132.188 75.3194 122.087C80.7385 113.819 87.03 106.98 96.8744 104.797C99.3105 104.183 99.3105 104.183 101.312 102.8C102.632 99.9164 103.244 97.184 103.839 94.0876C105.612 85.2047 111.722 77.4722 119.21 72.456C134.568 63.8998 150.727 65.7332 165.295 74.7452ZM124.026 90.6843C121.592 93.6187 119.967 96.7011 119.259 100.462C119.529 102.193 119.529 102.193 120.039 103.579C120.586 103.712 121.133 103.844 121.697 103.981C131.313 106.434 139.521 110.716 145.151 119.278C146.391 122.094 146.475 124.76 145.788 127.737C143.819 130.598 142.534 131.446 139.204 132.413C135.857 132.413 134.504 131.971 131.743 130.075C130.313 128.543 128.969 126.956 127.625 125.348C123.997 121.281 119.526 119.414 114.175 118.903C106.468 118.823 100.311 119.403 94.4361 124.718C88.5787 131.107 86.9587 138.231 87.0997 146.644C87.4225 152.255 89.5544 157.194 93.5095 161.247C97.0792 163.892 100.738 164.937 105.171 164.714C107.958 164.106 109.12 162.773 110.676 160.468C111.313 157.285 110.58 155.461 109.066 152.724C107.792 150.346 107.553 149.468 107.506 146.635C108.512 143.562 109.47 142.618 112.236 140.985C115.66 139.725 118.258 140.443 121.599 141.765C122.441 143.195 122.441 143.195 123.16 144.882C123.56 145.64 123.56 145.64 123.968 146.413C127.184 152.582 127.934 158.281 126.281 165.095C124.467 170.614 120.619 175.091 115.552 177.953C107.455 181.381 99.1599 181.383 91.0133 178.194C88.9545 177.27 86.9322 176.308 84.9265 175.275C82.1891 179.616 82.9624 185.163 83.366 190.081C84.9555 196.659 89.6199 201.986 95.2164 205.618C100.052 208.52 105.157 208.494 110.676 208.005C116.435 206.527 121.204 203.888 124.574 198.897C127.059 196.274 129.809 196.01 133.303 195.536C135.07 195.536 136.72 197.58 137.985 198.653C139.241 201.163 139.123 203.725 138.765 206.446C137.546 208.833 137.546 208.833 135.644 211.122C135.301 211.554 134.958 211.986 134.605 212.431C130.098 217.559 123.334 220.676 116.918 222.812C117.26 227.086 118.226 229.538 120.819 232.942C121.254 233.601 121.688 234.26 122.136 234.939C126.02 239.028 131.574 241.731 137.205 242.294C144.119 242.457 150.427 241.158 155.694 236.431C159.03 232.68 159.15 229.555 159.153 224.703C159.155 224.196 159.156 223.689 159.158 223.166C159.161 221.495 159.159 219.825 159.156 218.154C159.157 216.992 159.157 215.829 159.158 214.667C159.16 212.234 159.158 209.801 159.154 207.368C159.15 204.246 159.152 201.124 159.157 198.002C159.16 195.603 159.159 193.205 159.157 190.806C159.156 189.655 159.157 188.503 159.159 187.352C159.161 185.745 159.158 184.139 159.153 182.533C159.153 181.618 159.152 180.703 159.152 179.761C159.2 177.643 159.2 177.643 158.272 176.054C156.263 175.342 156.263 175.342 153.932 174.787C153.142 174.585 152.353 174.382 151.539 174.173C150.929 174.022 150.318 173.871 149.689 173.716C148.336 169.131 147.682 165.804 149.689 161.247C151.583 159.215 152.965 158.867 155.688 158.13C156.967 157.744 156.967 157.744 158.272 157.351C159.193 154.59 159.163 152.383 159.178 149.469C159.182 148.907 159.186 148.345 159.19 147.767C159.201 145.908 159.207 144.05 159.211 142.191C159.215 140.897 159.22 139.603 159.224 138.309C159.233 135.594 159.237 132.879 159.24 130.165C159.244 126.694 159.263 123.224 159.285 119.754C159.3 117.08 159.304 114.406 159.305 111.731C159.307 110.453 159.314 109.174 159.324 107.895C159.337 106.101 159.336 104.307 159.331 102.513C159.333 101.494 159.336 100.475 159.339 99.4247C158.815 94.1951 156.847 90.67 152.81 87.214C149.904 85.2141 147.516 84.452 144.032 83.9506C143.207 83.8271 142.383 83.7035 141.533 83.5762C134.607 82.6745 128.843 85.9957 124.026 90.6843ZM179.577 88.8578C177.013 92.569 176.804 96.9599 176.806 101.336C176.804 101.867 176.802 102.398 176.8 102.945C176.796 104.711 176.802 106.476 176.809 108.241C176.808 109.512 176.807 110.784 176.805 112.056C176.801 115.5 176.807 118.944 176.815 122.388C176.822 125.999 176.82 129.61 176.82 133.221C176.821 139.286 176.828 145.35 176.838 151.415C176.85 158.416 176.855 165.417 176.854 172.418C176.853 179.884 176.859 187.351 176.866 194.817C176.868 196.962 176.868 199.107 176.869 201.252C176.869 204.631 176.874 208.009 176.882 211.388C176.884 212.624 176.885 213.86 176.885 215.096C176.415 225.917 176.415 225.917 179.34 236.06C179.855 236.06 180.37 236.06 180.9 236.06C180.9 236.574 180.9 237.088 180.9 237.618C187.406 241.438 193.353 243.113 200.895 241.856C206.887 240.239 211.547 236.556 215.061 231.515C216.615 228.755 217.547 225.863 218.353 222.812C217.655 222.452 216.957 222.092 216.238 221.722C204.506 215.483 196.373 207.095 192.412 194.185C189.541 181.764 191.121 169.286 197.822 158.422C201.912 152.624 207.429 147.464 214.452 145.661C216.967 145.407 218.174 145.673 220.694 146.441C223.101 148.965 223.759 150.469 224.059 153.941C223.938 155.243 223.938 155.243 223.815 156.571C223.743 157.463 223.743 157.463 223.669 158.373C223.035 159.689 223.035 159.689 221.426 160.322C216.338 162.376 211.331 167.161 208.99 172.157C206.813 179.831 206.771 187.402 210.325 194.629C213.989 200.772 219.152 205.408 226.058 207.518C233.675 209.066 240.258 206.593 246.589 202.501C251.296 198.286 253.989 191.848 254.377 185.652C254.406 181.619 254.318 178.267 252.685 174.495C249.556 175.705 246.513 177.07 243.465 178.468C239.996 179.9 236.942 180.274 233.178 179.95C228.857 177.552 228.857 177.552 227.717 175.275C227.558 173.67 227.558 173.67 227.521 171.816C227.501 171.207 227.481 170.597 227.461 169.969C227.717 168.261 227.717 168.261 228.622 166.955C230.493 165.609 232.272 165.162 234.495 164.559C239.859 162.843 243.677 160.514 246.708 155.686C250.364 148.24 250.062 140.799 247.421 133.04C244.829 127.172 240.447 122.746 234.495 120.334C228.421 118.466 223.116 118.141 217.28 120.87C213.161 123.178 210.023 126.121 207.429 130.075C207.429 130.59 207.429 131.104 207.429 131.634C203.052 132.897 200.046 133.626 195.725 131.634C195.725 131.12 195.725 130.605 195.725 130.075C195.21 129.561 194.695 129.047 194.165 128.517C193.252 125.782 193.05 123.898 194.134 121.189C199.16 112.19 207.106 106.804 216.793 103.579C215.565 96.3199 212.739 91.8791 207.155 87.0343C198.843 81.4874 187.074 82.3766 179.577 88.8578Z" fill="#0F82ED"></path>
</g>
<defs>
<clipPath id="SvgjsClipPath1185">
<rect width="336" height="403" fill="white"></rect>
</clipPath>
</defs>
</svg><style>@media (prefers-color-scheme: light) { :root { filter: none; } }
@media (prefers-color-scheme: dark) { :root { filter: none; } }
</style></svg>